<svg width="175" height="33" viewBox="0 0 175 33" fill="none" xmlns="http://www.w3.org/2000/svg">
<g id="Group 11">
<g id="Group 5">
<g id="Group-25">
<g id="2">
<path id="Shape" d="M14.5621 1.16397L0.664611 15.05C-0.0825397 15.7965 -0.0825397 17.0023 0.664611 17.7489L14.5621 31.6349C15.3092 32.3814 16.516 32.3814 17.2632 31.6349L23.0902 25.8127C23.7593 25.1441 23.7593 24.0601 23.0902 23.3916C22.421 22.723 21.3362 22.723 20.667 23.3916L16.2496 27.8053C16.0637 27.9911 15.7814 27.9911 15.5955 27.8053L4.49734 16.7163C4.31137 16.5305 4.31137 16.2485 4.49734 16.0627L15.5955 4.97371C15.7814 4.7879 16.0637 4.7879 16.2496 4.97371L20.667 9.38749C21.3362 10.0561 22.421 10.0561 23.0902 9.38749C23.7593 8.71891 23.7593 7.63493 23.0902 6.96635L17.2638 1.14477C16.5136 0.41439 15.3064 0.420302 14.5621 1.16397Z" fill="url(#paint0_linear_0_19749)"/>
<path id="Shape_2" d="M14.5621 1.16397L0.664611 15.05C-0.0825397 15.7965 -0.0825397 17.0023 0.664611 17.7489L14.5621 31.6349C15.3092 32.3814 16.516 32.3814 17.2632 31.6349L23.0902 25.8127C23.7593 25.1441 23.7593 24.0601 23.0902 23.3916C22.421 22.723 21.3362 22.723 20.667 23.3916L16.2496 27.8053C16.0637 27.9911 15.7814 27.9911 15.5955 27.8053L4.49734 16.7163C4.31137 16.5305 4.31137 16.2485 4.49734 16.0627L15.5955 4.97371C16.0585 4.57452 16.814 3.76598 17.9235 3.57687C18.748 3.43633 19.6495 3.74566 20.6278 4.50485C19.9737 3.85129 18.8524 2.73127 17.2638 1.14477C16.5136 0.41439 15.3064 0.420302 14.5621 1.16397Z" fill="url(#paint1_linear_0_19749)"/>
</g>
<path id="Shape_3" d="M24.4353 22.1001C25.1044 22.7687 26.1893 22.7687 26.8584 22.1001L31.1567 17.8054C31.9039 17.0588 31.9039 15.853 31.1568 15.1066L26.821 10.7898C26.1503 10.122 25.0651 10.1229 24.3956 10.7919C23.7265 11.4605 23.7265 12.5445 24.3956 13.213L27.324 16.139C27.5099 16.3248 27.5099 16.6069 27.324 16.7927L24.4353 19.679C23.7662 20.3476 23.7662 21.4315 24.4353 22.1001Z" fill="url(#paint2_linear_0_19749)"/>
</g>
<ellipse id="Combined-Shape" cx="15.982" cy="16.469" rx="3.75229" ry="3.74926" fill="url(#paint3_linear_0_19749)"/>
</g>
<g id="Ant Design Pro">
<path fill-rule="evenodd" clip-rule="evenodd" d="M53.8101 23.1646L52.7695 19.8418H47.9732L46.9326 23.1646H44L48.7395 9.46519H52.0978L56.8467 23.1646H53.8101ZM50.3382 12.0854L48.5881 17.6962H52.1546L50.4045 12.0854H50.3382ZM58.0009 23.1646H60.7632V17.3734C60.7632 16.0443 61.5295 15.1329 62.7782 15.1329C64.0364 15.1329 64.6513 15.8924 64.6513 17.2215V23.1646H67.4136V16.6424C67.4136 14.2595 66.146 12.8354 63.8945 12.8354C62.3336 12.8354 61.3024 13.519 60.7254 14.8196H60.6686V12.9873H58.0009V23.1646ZM69.9016 10.6424V12.9873H68.4731V15.0759H69.9016V20.4114C69.9016 22.3956 70.8287 23.2025 73.2126 23.2025C73.7708 23.2025 74.2438 23.1456 74.5276 23.0886V21.0475C74.3573 21.0759 74.1019 21.0949 73.8559 21.0949C73.0424 21.0949 72.6639 20.7152 72.6639 19.9367V15.0759H74.537V12.9873H72.6639V10.6424H69.9016ZM80.1185 9.46519H85.331C89.4272 9.46519 91.8395 11.9146 91.8395 16.2627C91.8395 20.6108 89.4272 23.1646 85.331 23.1646H80.1185V9.46519ZM82.9754 11.8291V20.7911H84.9904C87.5446 20.7911 88.9258 19.2342 88.9258 16.2722C88.9258 13.4051 87.5068 11.8291 84.9904 11.8291H82.9754ZM97.9885 14.8576C96.7871 14.8576 95.9073 15.7405 95.8127 17.0127H100.117C100.06 15.712 99.2088 14.8576 97.9885 14.8576ZM100.155 20.0506H102.69C102.387 22.0348 100.552 23.3449 98.0642 23.3449C94.9613 23.3449 93.0693 21.3608 93.0693 18.1234C93.0693 14.8766 94.9707 12.807 97.9601 12.807C100.902 12.807 102.775 14.7722 102.775 17.8671V18.712H95.7843V18.8829C95.7843 20.3165 96.7209 21.2943 98.1115 21.2943C99.1048 21.2943 99.8994 20.8196 100.155 20.0506ZM104.024 15.9968C104.024 17.4873 105.008 18.4842 106.928 18.9209L108.801 19.3386C109.71 19.557 110.05 19.8323 110.05 20.3354C110.05 20.9905 109.407 21.3987 108.366 21.3987C107.269 21.3987 106.588 20.9146 106.465 20.0696H103.769C103.91 22.0443 105.585 23.3449 108.29 23.3449C110.968 23.3449 112.803 22.0348 112.803 20.0411C112.803 18.5316 111.98 17.7342 109.946 17.2785L108.007 16.8608C107.117 16.6519 106.682 16.3196 106.682 15.8259C106.682 15.1804 107.316 14.7532 108.262 14.7532C109.284 14.7532 109.946 15.2563 109.993 16.0538H112.538C112.51 14.0886 110.835 12.807 108.3 12.807C105.698 12.807 104.024 14.0696 104.024 15.9968ZM114.222 23.1646H116.984V12.9873H114.222V23.1646ZM115.603 11.8671C116.417 11.8671 117.079 11.2405 117.079 10.4335C117.079 9.60759 116.417 9 115.603 9C114.79 9 114.127 9.60759 114.127 10.4335C114.127 11.2405 114.79 11.8671 115.603 11.8671ZM123.502 20.962C124.883 20.962 125.763 19.8608 125.763 18.057C125.763 16.2627 124.883 15.0949 123.502 15.0949C122.14 15.0949 121.279 16.2437 121.279 18.057C121.279 19.8797 122.131 20.962 123.502 20.962ZM123.455 27C120.787 27 118.98 25.6994 118.763 23.8861H121.468C121.686 24.5886 122.481 25.0728 123.531 25.0728C124.959 25.0728 125.754 24.2753 125.754 23.0981V21.3133H125.697C125.224 22.3956 124.032 23.0981 122.566 23.0981C120.097 23.0981 118.451 21.1804 118.451 18.038C118.451 14.8481 120.049 12.8639 122.613 12.8639C124.07 12.8639 125.215 13.6044 125.744 14.7342H125.792V12.9873H128.516V23.0222C128.516 25.4525 126.492 27 123.455 27ZM130.313 23.1646H133.076V17.3734C133.076 16.0443 133.842 15.1329 135.091 15.1329C136.349 15.1329 136.964 15.8924 136.964 17.2215V23.1646H139.726V16.6424C139.726 14.2595 138.459 12.8354 136.207 12.8354C134.646 12.8354 133.615 13.519 133.038 14.8196H132.981V12.9873H130.313V23.1646ZM145.544 9.46519H151.097C153.897 9.46519 155.827 11.3354 155.827 14.1551C155.827 16.9652 153.831 18.8449 150.955 18.8449H148.401V23.1646H145.544V9.46519ZM148.401 11.7342V16.6044H150.331C151.968 16.6044 152.923 15.731 152.923 14.1646C152.923 12.6076 151.977 11.7342 150.34 11.7342H148.401ZM157.275 23.1646H160.037V17.5158C160.037 16.0823 160.832 15.2468 162.194 15.2468C162.591 15.2468 162.97 15.3133 163.197 15.4082V12.9684C162.998 12.9019 162.733 12.8639 162.411 12.8639C161.219 12.8639 160.349 13.557 159.999 14.8196H159.942V12.9873H157.275V23.1646ZM168.977 23.3449C165.883 23.3449 163.953 21.3703 163.953 18.0665C163.953 14.8101 165.912 12.807 168.977 12.807C172.042 12.807 174 14.8006 174 18.0665C174 21.3797 172.07 23.3449 168.977 23.3449ZM168.977 21.2278C170.358 21.2278 171.19 20.0791 171.19 18.0759C171.19 16.0918 170.358 14.9241 168.977 14.9241C167.596 14.9241 166.754 16.1013 166.754 18.0759C166.754 20.0791 167.586 21.2278 168.977 21.2278Z" fill="white"/>
<path d="M53.8101 23.1646L53.6669 23.2094L53.6999 23.3146H53.8101V23.1646ZM52.7695 19.8418L52.9126 19.7969L52.8797 19.6918H52.7695V19.8418ZM47.9732 19.8418V19.6918H47.863L47.8301 19.7969L47.9732 19.8418ZM46.9326 23.1646V23.3146H47.0428L47.0758 23.2094L46.9326 23.1646ZM44 23.1646L43.8582 23.1155L43.7894 23.3146H44V23.1646ZM48.7395 9.46519V9.31519H48.6327L48.5977 9.41615L48.7395 9.46519ZM52.0978 9.46519L52.2395 9.41606L52.2046 9.31519H52.0978V9.46519ZM56.8467 23.1646V23.3146H57.0575L56.9885 23.1154L56.8467 23.1646ZM50.3382 12.0854V11.9354H50.2279L50.195 12.0408L50.3382 12.0854ZM48.5881 17.6962L48.4449 17.6515L48.3842 17.8462H48.5881V17.6962ZM52.1546 17.6962V17.8462H52.3585L52.2978 17.6515L52.1546 17.6962ZM50.4045 12.0854L50.5476 12.0408L50.5148 11.9354H50.4045V12.0854ZM58.0009 23.1646H57.8509V23.3146H58.0009V23.1646ZM60.7632 23.1646V23.3146H60.9132V23.1646H60.7632ZM64.6513 23.1646H64.5013V23.3146H64.6513V23.1646ZM67.4136 23.1646V23.3146H67.5636V23.1646H67.4136ZM60.7254 14.8196V14.9696H60.8229L60.8625 14.8805L60.7254 14.8196ZM60.6686 14.8196H60.5186V14.9696H60.6686V14.8196ZM60.6686 12.9873H60.8186V12.8373H60.6686V12.9873ZM58.0009 12.9873V12.8373H57.8509V12.9873H58.0009ZM69.9016 10.6424V10.4924H69.7516V10.6424H69.9016ZM69.9016 12.9873V13.1373H70.0516V12.9873H69.9016ZM68.4731 12.9873V12.8373H68.3231V12.9873H68.4731ZM68.4731 15.0759H68.3231V15.2259H68.4731V15.0759ZM69.9016 15.0759H70.0516V14.9259H69.9016V15.0759ZM74.5276 23.0886L74.5571 23.2357L74.6776 23.2115V23.0886H74.5276ZM74.5276 21.0475H74.6776V20.8703L74.5028 20.8995L74.5276 21.0475ZM72.6639 15.0759V14.9259H72.514V15.0759H72.6639ZM74.537 15.0759V15.2259H74.687V15.0759H74.537ZM74.537 12.9873H74.687V12.8373H74.537V12.9873ZM72.6639 12.9873H72.514V13.1373H72.6639V12.9873ZM72.6639 10.6424H72.8139V10.4924H72.6639V10.6424ZM80.1185 9.46519V9.31519H79.9685V9.46519H80.1185ZM80.1185 23.1646H79.9685V23.3146H80.1185V23.1646ZM82.9754 11.8291V11.6791H82.8254V11.8291H82.9754ZM82.9754 20.7911H82.8254V20.9411H82.9754V20.7911ZM95.8127 17.0127L95.6631 17.0015L95.6511 17.1627H95.8127V17.0127ZM100.117 17.0127V17.1627H100.274L100.267 17.0061L100.117 17.0127ZM100.155 20.0506V19.9006H100.047L100.013 20.0034L100.155 20.0506ZM102.69 20.0506L102.838 20.0733L102.865 19.9006H102.69V20.0506ZM102.775 18.712V18.862H102.925V18.712H102.775ZM95.7843 18.712V18.562H95.6343V18.712H95.7843ZM106.928 18.9209L106.895 19.0672L106.896 19.0673L106.928 18.9209ZM108.801 19.3386L108.836 19.1927L108.834 19.1922L108.801 19.3386ZM106.465 20.0696L106.613 20.048L106.594 19.9196H106.465V20.0696ZM103.769 20.0696V19.9196H103.607L103.619 20.0804L103.769 20.0696ZM109.946 17.2785L109.979 17.1321L109.978 17.1318L109.946 17.2785ZM108.007 16.8608L107.972 17.0068L107.975 17.0074L108.007 16.8608ZM109.993 16.0538L109.844 16.0627L109.852 16.2038H109.993V16.0538ZM112.538 16.0538V16.2038H112.69L112.688 16.0516L112.538 16.0538ZM114.222 23.1646H114.072V23.3146H114.222V23.1646ZM116.984 23.1646V23.3146H117.134V23.1646H116.984ZM116.984 12.9873H117.134V12.8373H116.984V12.9873ZM114.222 12.9873V12.8373H114.072V12.9873H114.222ZM118.763 23.8861V23.7361H118.594L118.614 23.9039L118.763 23.8861ZM121.468 23.8861L121.612 23.8417L121.579 23.7361H121.468V23.8861ZM125.754 21.3133H125.904V21.1633H125.754V21.3133ZM125.697 21.3133V21.1633H125.599L125.56 21.2532L125.697 21.3133ZM125.744 14.7342L125.608 14.7979L125.649 14.8842H125.744V14.7342ZM125.792 14.7342V14.8842H125.942V14.7342H125.792ZM125.792 12.9873V12.8373H125.642V12.9873H125.792ZM128.516 12.9873H128.666V12.8373H128.516V12.9873ZM130.313 23.1646H130.163V23.3146H130.313V23.1646ZM133.076 23.1646V23.3146H133.226V23.1646H133.076ZM136.964 23.1646H136.814V23.3146H136.964V23.1646ZM139.726 23.1646V23.3146H139.876V23.1646H139.726ZM133.038 14.8196V14.9696H133.136L133.175 14.8805L133.038 14.8196ZM132.981 14.8196H132.831V14.9696H132.981V14.8196ZM132.981 12.9873H133.131V12.8373H132.981V12.9873ZM130.313 12.9873V12.8373H130.163V12.9873H130.313ZM145.544 9.46519V9.31519H145.394V9.46519H145.544ZM148.401 18.8449V18.6949H148.251V18.8449H148.401ZM148.401 23.1646V23.3146H148.551V23.1646H148.401ZM145.544 23.1646H145.394V23.3146H145.544V23.1646ZM148.401 11.7342V11.5842H148.251V11.7342H148.401ZM148.401 16.6044H148.251V16.7544H148.401V16.6044ZM157.275 23.1646H157.125V23.3146H157.275V23.1646ZM160.037 23.1646V23.3146H160.187V23.1646H160.037ZM163.197 15.4082L163.139 15.5466L163.347 15.6335V15.4082H163.197ZM163.197 12.9684H163.347V12.8604L163.244 12.8261L163.197 12.9684ZM159.999 14.8196V14.9696H160.113L160.144 14.8597L159.999 14.8196ZM159.942 14.8196H159.792V14.9696H159.942V14.8196ZM159.942 12.9873H160.092V12.8373H159.942V12.9873ZM157.275 12.9873V12.8373H157.125V12.9873H157.275ZM53.9532 23.1197L52.9126 19.7969L52.6263 19.8866L53.6669 23.2094L53.9532 23.1197ZM52.7695 19.6918H47.9732V19.9918H52.7695V19.6918ZM47.8301 19.7969L46.7895 23.1197L47.0758 23.2094L48.1164 19.8866L47.8301 19.7969ZM46.9326 23.0146H44V23.3146H46.9326V23.0146ZM44.1418 23.2136L48.8812 9.51423L48.5977 9.41615L43.8582 23.1155L44.1418 23.2136ZM48.7395 9.61519H52.0978V9.31519H48.7395V9.61519ZM51.9561 9.51432L56.705 23.2137L56.9885 23.1154L52.2395 9.41606L51.9561 9.51432ZM56.8467 23.0146H53.8101V23.3146H56.8467V23.0146ZM50.195 12.0408L48.4449 17.6515L48.7313 17.7409L50.4814 12.1301L50.195 12.0408ZM48.5881 17.8462H52.1546V17.5462H48.5881V17.8462ZM52.2978 17.6515L50.5476 12.0408L50.2613 12.1301L52.0114 17.7409L52.2978 17.6515ZM50.4045 11.9354H50.3382V12.2354H50.4045V11.9354ZM58.0009 23.3146H60.7632V23.0146H58.0009V23.3146ZM60.9132 23.1646V17.3734H60.6132V23.1646H60.9132ZM60.9132 17.3734C60.9132 16.7369 61.0965 16.2148 61.4149 15.854C61.7315 15.4952 62.1927 15.2829 62.7782 15.2829V14.9829C62.1149 14.9829 61.5687 15.2263 61.19 15.6555C60.813 16.0827 60.6132 16.6808 60.6132 17.3734H60.9132ZM62.7782 15.2829C63.3762 15.2829 63.7983 15.4623 64.0736 15.7775C64.352 16.0962 64.5013 16.5774 64.5013 17.2215H64.8013C64.8013 16.5365 64.6431 15.9734 64.2995 15.5801C63.9529 15.1833 63.4383 14.9829 62.7782 14.9829V15.2829ZM64.5013 17.2215V23.1646H64.8013V17.2215H64.5013ZM64.6513 23.3146H67.4136V23.0146H64.6513V23.3146ZM67.5636 23.1646V16.6424H67.2636V23.1646H67.5636ZM67.5636 16.6424C67.5636 15.4256 67.2398 14.4334 66.609 13.7441C65.9765 13.0528 65.0529 12.6854 63.8945 12.6854V12.9854C64.9876 12.9854 65.8236 13.3301 66.3877 13.9466C66.9536 14.565 67.2636 15.4763 67.2636 16.6424H67.5636ZM63.8945 12.6854C63.0919 12.6854 62.4145 12.8614 61.8606 13.2132C61.3063 13.5652 60.8866 14.0864 60.5883 14.7588L60.8625 14.8805C61.1412 14.2522 61.5256 13.7813 62.0214 13.4664C62.5176 13.1513 63.1362 12.9854 63.8945 12.9854V12.6854ZM60.7254 14.6696H60.6686V14.9696H60.7254V14.6696ZM60.8186 14.8196V12.9873H60.5186V14.8196H60.8186ZM60.6686 12.8373H58.0009V13.1373H60.6686V12.8373ZM57.8509 12.9873V23.1646H58.1509V12.9873H57.8509ZM69.7516 10.6424V12.9873H70.0516V10.6424H69.7516ZM69.9016 12.8373H68.4731V13.1373H69.9016V12.8373ZM68.3231 12.9873V15.0759H68.6231V12.9873H68.3231ZM68.4731 15.2259H69.9016V14.9259H68.4731V15.2259ZM69.7516 15.0759V20.4114H70.0516V15.0759H69.7516ZM69.7516 20.4114C69.7516 21.424 69.9882 22.1748 70.5661 22.6654C71.1375 23.1505 72.0105 23.3525 73.2126 23.3525V23.0525C72.0308 23.0525 71.2484 22.8511 70.7602 22.4367C70.2786 22.0278 70.0516 21.3829 70.0516 20.4114H69.7516ZM73.2126 23.3525C73.7799 23.3525 74.2629 23.2947 74.5571 23.2357L74.4981 22.9415C74.2247 22.9964 73.7616 23.0525 73.2126 23.0525V23.3525ZM74.6776 23.0886V21.0475H74.3776V23.0886H74.6776ZM74.5028 20.8995C74.3428 20.9263 74.096 20.9449 73.8559 20.9449V21.2449C74.1077 21.2449 74.3718 21.2256 74.5523 21.1954L74.5028 20.8995ZM73.8559 20.9449C73.4697 20.9449 73.2171 20.8546 73.0598 20.7006C72.9032 20.5472 72.8139 20.3039 72.8139 19.9367H72.514C72.514 20.348 72.6139 20.6838 72.8499 20.9149C73.0852 21.1454 73.4286 21.2449 73.8559 21.2449V20.9449ZM72.8139 19.9367V15.0759H72.514V19.9367H72.8139ZM72.6639 15.2259H74.537V14.9259H72.6639V15.2259ZM74.687 15.0759V12.9873H74.387V15.0759H74.687ZM74.537 12.8373H72.6639V13.1373H74.537V12.8373ZM72.8139 12.9873V10.6424H72.514V12.9873H72.8139ZM72.6639 10.4924H69.9016V10.7924H72.6639V10.4924ZM80.1185 9.61519H85.331V9.31519H80.1185V9.61519ZM85.331 9.61519C87.349 9.61519 88.9331 10.2178 90.0133 11.3375C91.0942 12.4579 91.6895 14.1156 91.6895 16.2627H91.9895C91.9895 14.0616 91.3785 12.3205 90.2292 11.1292C89.0792 9.93722 87.4091 9.31519 85.331 9.31519V9.61519ZM91.6895 16.2627C91.6895 18.4097 91.0942 20.0943 90.0122 21.2412C88.9313 22.3869 87.3472 23.0146 85.331 23.0146V23.3146C87.4109 23.3146 89.0811 22.6653 90.2304 21.4471C91.3786 20.23 91.9895 18.4637 91.9895 16.2627H91.6895ZM85.331 23.0146H80.1185V23.3146H85.331V23.0146ZM80.2685 23.1646V9.46519H79.9685V23.1646H80.2685ZM82.8254 11.8291V20.7911H83.1254V11.8291H82.8254ZM82.9754 20.9411H84.9904V20.6411H82.9754V20.9411ZM84.9904 20.9411C86.2989 20.9411 87.3288 20.5412 88.0288 19.7412C88.7259 18.9446 89.0758 17.7739 89.0758 16.2722H88.7758C88.7758 17.7324 88.4351 18.8213 87.803 19.5436C87.1739 20.2626 86.2361 20.6411 84.9904 20.6411V20.9411ZM89.0758 16.2722C89.0758 14.8158 88.7154 13.6645 88.0138 12.8758C87.3098 12.0844 86.281 11.6791 84.9904 11.6791V11.9791C86.2162 11.9791 87.1551 12.3618 87.7896 13.0752C88.4266 13.7912 88.7758 14.8614 88.7758 16.2722H89.0758ZM84.9904 11.6791H82.9754V11.9791H84.9904V11.6791ZM97.9885 14.7076C96.6994 14.7076 95.7628 15.6606 95.6631 17.0015L95.9623 17.0238C96.0518 15.8205 96.8748 15.0076 97.9885 15.0076V14.7076ZM95.8127 17.1627H100.117V16.8627H95.8127V17.1627ZM100.267 17.0061C100.237 16.3243 99.9982 15.7484 99.5957 15.3418C99.1926 14.9347 98.6351 14.7076 97.9885 14.7076V15.0076C98.5623 15.0076 99.0406 15.2077 99.3825 15.5529C99.725 15.8988 99.9401 16.4003 99.9672 17.0192L100.267 17.0061ZM100.155 20.2006H102.69V19.9006H100.155V20.2006ZM102.542 20.028C102.254 21.9166 100.503 23.1949 98.0642 23.1949V23.4949C100.601 23.4949 102.521 22.153 102.838 20.0733L102.542 20.028ZM98.0642 23.1949C96.5455 23.1949 95.339 22.7102 94.5116 21.8445C93.6834 20.978 93.2193 19.7132 93.2193 18.1234H92.9193C92.9193 19.771 93.4011 21.1169 94.2947 22.0518C95.1891 22.9876 96.4799 23.4949 98.0642 23.4949V23.1949ZM93.2193 18.1234C93.2193 16.5289 93.6859 15.2389 94.5041 14.3492C95.3211 13.4608 96.5017 12.957 97.9601 12.957V12.657C96.4292 12.657 95.1644 13.188 94.2833 14.1461C93.4034 15.1029 92.9193 16.4711 92.9193 18.1234H93.2193ZM97.9601 12.957C99.3966 12.957 100.559 13.4359 101.362 14.2799C102.167 15.1246 102.625 16.3498 102.625 17.8671H102.925C102.925 16.2894 102.447 14.9845 101.58 14.073C100.711 13.1607 99.4657 12.657 97.9601 12.657V12.957ZM102.625 17.8671V18.712H102.925V17.8671H102.625ZM102.775 18.562H95.7843V18.862H102.775V18.562ZM95.6343 18.712V18.8829H95.9343V18.712H95.6343ZM95.6343 18.8829C95.6343 19.6327 95.8797 20.2747 96.3184 20.7302C96.7575 21.1862 97.3797 21.4443 98.1115 21.4443V21.1443C97.4526 21.1443 96.9113 20.9135 96.5345 20.5221C96.1571 20.1303 95.9343 19.5666 95.9343 18.8829H95.6343ZM98.1115 21.4443C99.1484 21.4443 100.016 20.946 100.297 20.0979L100.013 20.0034C99.7834 20.6932 99.0611 21.1443 98.1115 21.1443V21.4443ZM103.874 15.9968C103.874 16.7784 104.133 17.4392 104.649 17.9597C105.162 18.4767 105.918 18.845 106.895 19.0672L106.962 18.7746C106.018 18.5601 105.322 18.2116 104.862 17.7484C104.407 17.2886 104.174 16.7058 104.174 15.9968H103.874ZM106.896 19.0673L108.769 19.485L108.834 19.1922L106.961 18.7745L106.896 19.0673ZM108.766 19.4845C109.216 19.5925 109.501 19.7098 109.673 19.8473C109.833 19.9757 109.9 20.1259 109.9 20.3354H110.2C110.2 20.0418 110.097 19.8027 109.86 19.6131C109.634 19.4326 109.295 19.3031 108.836 19.1928L108.766 19.4845ZM109.9 20.3354C109.9 20.6054 109.771 20.8261 109.518 20.986C109.26 21.1495 108.87 21.2487 108.366 21.2487V21.5487C108.903 21.5487 109.355 21.4438 109.679 21.2395C110.007 21.0315 110.2 20.7205 110.2 20.3354H109.9ZM108.366 21.2487C107.838 21.2487 107.427 21.1321 107.136 20.9283C106.849 20.7268 106.669 20.4323 106.613 20.048L106.316 20.0912C106.383 20.5519 106.605 20.9219 106.964 21.1738C107.319 21.4233 107.797 21.5487 108.366 21.5487V21.2487ZM106.465 19.9196H103.769V20.2196H106.465V19.9196ZM103.619 20.0804C103.693 21.1111 104.169 21.9702 104.979 22.5684C105.786 23.1644 106.915 23.4949 108.29 23.4949V23.1949C106.96 23.1949 105.899 22.8751 105.157 22.3271C104.418 21.7814 103.986 21.0028 103.918 20.0589L103.619 20.0804ZM108.29 23.4949C109.652 23.4949 110.813 23.1621 111.639 22.562C112.468 21.9593 112.953 21.0896 112.953 20.0411H112.653C112.653 20.9863 112.22 21.7686 111.462 22.3193C110.701 22.8727 109.606 23.1949 108.29 23.1949V23.4949ZM112.953 20.0411C112.953 19.2564 112.738 18.6367 112.241 18.1568C111.752 17.6833 111.006 17.3622 109.979 17.1321L109.913 17.4249C110.92 17.6505 111.602 17.9559 112.033 18.3724C112.457 18.7826 112.653 19.3164 112.653 20.0411H112.953ZM109.978 17.1318L108.038 16.7141L107.975 17.0074L109.914 17.4251L109.978 17.1318ZM108.041 16.7147C107.605 16.6123 107.298 16.4833 107.103 16.3317C106.914 16.1851 106.832 16.0201 106.832 15.8259H106.532C106.532 16.1255 106.668 16.3735 106.919 16.5686C107.164 16.7588 107.519 16.9003 107.972 17.0068L108.041 16.7147ZM106.832 15.8259C106.832 15.5591 106.961 15.3349 107.202 15.1716C107.447 15.0057 107.81 14.9032 108.262 14.9032V14.6032C107.769 14.6032 107.342 14.7143 107.033 14.9233C106.721 15.135 106.532 15.4472 106.532 15.8259H106.832ZM108.262 14.9032C108.75 14.9032 109.136 15.0233 109.403 15.2242C109.666 15.4228 109.822 15.7071 109.844 16.0627L110.143 16.0449C110.117 15.6031 109.918 15.237 109.583 14.9846C109.252 14.7346 108.796 14.6032 108.262 14.6032V14.9032ZM109.993 16.2038H112.538V15.9038H109.993V16.2038ZM112.688 16.0516C112.673 15.0226 112.225 14.168 111.45 13.5743C110.679 12.9833 109.591 12.657 108.3 12.657V12.957C109.544 12.957 110.562 13.2715 111.268 13.8125C111.971 14.351 112.375 15.1198 112.388 16.056L112.688 16.0516ZM108.3 12.657C106.977 12.657 105.873 12.9779 105.097 13.5591C104.316 14.1432 103.874 14.9847 103.874 15.9968H104.174C104.174 15.0817 104.569 14.3283 105.276 13.7993C105.987 13.2674 107.022 12.957 108.3 12.957V12.657ZM114.222 23.3146H116.984V23.0146H114.222V23.3146ZM117.134 23.1646V12.9873H116.834V23.1646H117.134ZM116.984 12.8373H114.222V13.1373H116.984V12.8373ZM114.072 12.9873V23.1646H114.372V12.9873H114.072ZM115.603 12.0171C116.494 12.0171 117.229 11.3285 117.229 10.4335H116.929C116.929 11.1525 116.339 11.7171 115.603 11.7171V12.0171ZM117.229 10.4335C117.229 9.51828 116.493 8.85 115.603 8.85V9.15C116.34 9.15 116.929 9.69691 116.929 10.4335H117.229ZM115.603 8.85C114.713 8.85 113.977 9.51828 113.977 10.4335H114.277C114.277 9.69691 114.866 9.15 115.603 9.15V8.85ZM113.977 10.4335C113.977 11.3285 114.712 12.0171 115.603 12.0171V11.7171C114.867 11.7171 114.277 11.1525 114.277 10.4335H113.977ZM123.502 21.112C124.237 21.112 124.846 20.8172 125.269 20.2785C125.688 19.7437 125.913 18.9814 125.913 18.057H125.613C125.613 18.9363 125.399 19.6265 125.033 20.0934C124.67 20.5562 124.149 20.812 123.502 20.812V21.112ZM125.913 18.057C125.913 17.1371 125.688 16.3617 125.27 15.8123C124.849 15.2589 124.24 14.9449 123.502 14.9449V15.2449C124.146 15.2449 124.667 15.5148 125.031 15.9939C125.399 16.4769 125.613 17.1825 125.613 18.057H125.913ZM123.502 14.9449C122.774 14.9449 122.174 15.2543 121.76 15.8059C121.349 16.3532 121.129 17.1286 121.129 18.057H121.429C121.429 17.172 121.639 16.4664 122 15.986C122.357 15.5099 122.868 15.2449 123.502 15.2449V14.9449ZM121.129 18.057C121.129 18.9895 121.347 19.7518 121.758 20.2846C122.172 20.822 122.773 21.112 123.502 21.112V20.812C122.86 20.812 122.349 20.5609 121.995 20.1014C121.637 19.6374 121.429 18.9472 121.429 18.057H121.129ZM123.455 26.85C120.826 26.85 119.116 25.5744 118.912 23.8682L118.614 23.9039C118.844 25.8243 120.748 27.15 123.455 27.15V26.85ZM118.763 24.0361H121.468V23.7361H118.763V24.0361ZM121.325 23.9305C121.569 24.7191 122.443 25.2228 123.531 25.2228V24.9228C122.518 24.9228 121.803 24.4581 121.612 23.8417L121.325 23.9305ZM123.531 25.2228C124.272 25.2228 124.868 25.0155 125.279 24.6374C125.692 24.258 125.904 23.7217 125.904 23.0981H125.604C125.604 23.6517 125.418 24.1027 125.076 24.4164C124.734 24.7313 124.218 24.9228 123.531 24.9228V25.2228ZM125.904 23.0981V21.3133H125.604V23.0981H125.904ZM125.754 21.1633H125.697V21.4633H125.754V21.1633ZM125.56 21.2532C125.116 22.2689 123.987 22.9481 122.566 22.9481V23.2481C124.077 23.2481 125.332 22.5223 125.834 21.3734L125.56 21.2532ZM122.566 22.9481C121.373 22.9481 120.388 22.4866 119.698 21.6509C119.006 20.8124 118.601 19.5843 118.601 18.038H118.301C118.301 19.6341 118.719 20.936 119.467 21.8419C120.217 22.7507 121.289 23.2481 122.566 23.2481V22.9481ZM118.601 18.038C118.601 16.4664 118.995 15.2095 119.687 14.3488C120.377 13.4917 121.374 13.0139 122.613 13.0139V12.7139C121.289 12.7139 120.204 13.2282 119.454 14.1607C118.706 15.0895 118.301 16.4197 118.301 18.038H118.601ZM122.613 13.0139C124.016 13.0139 125.105 13.7246 125.608 14.7979L125.88 14.6705C125.324 13.4843 124.124 12.7139 122.613 12.7139V13.0139ZM125.744 14.8842H125.792V14.5842H125.744V14.8842ZM125.942 14.7342V12.9873H125.642V14.7342H125.942ZM125.792 13.1373H128.516V12.8373H125.792V13.1373ZM128.366 12.9873V23.0222H128.666V12.9873H128.366ZM128.366 23.0222C128.366 24.1913 127.881 25.1421 127.032 25.8042C126.179 26.4691 124.949 26.85 123.455 26.85V27.15C124.997 27.15 126.298 26.7572 127.217 26.0408C128.139 25.3216 128.666 24.2834 128.666 23.0222H128.366ZM130.313 23.3146H133.076V23.0146H130.313V23.3146ZM133.226 23.1646V17.3734H132.926V23.1646H133.226ZM133.226 17.3734C133.226 16.7369 133.409 16.2148 133.728 15.854C134.044 15.4952 134.505 15.2829 135.091 15.2829V14.9829C134.428 14.9829 133.881 15.2263 133.503 15.6555C133.126 16.0827 132.926 16.6808 132.926 17.3734H133.226ZM135.091 15.2829C135.689 15.2829 136.111 15.4623 136.386 15.7775C136.665 16.0962 136.814 16.5774 136.814 17.2215H137.114C137.114 16.5365 136.956 15.9734 136.612 15.5801C136.265 15.1833 135.751 14.9829 135.091 14.9829V15.2829ZM136.814 17.2215V23.1646H137.114V17.2215H136.814ZM136.964 23.3146H139.726V23.0146H136.964V23.3146ZM139.876 23.1646V16.6424H139.576V23.1646H139.876ZM139.876 16.6424C139.876 15.4256 139.552 14.4334 138.922 13.7441C138.289 13.0528 137.366 12.6854 136.207 12.6854V12.9854C137.3 12.9854 138.136 13.3301 138.7 13.9466C139.266 14.565 139.576 15.4763 139.576 16.6424H139.876ZM136.207 12.6854C135.405 12.6854 134.727 12.8614 134.173 13.2132C133.619 13.5652 133.199 14.0864 132.901 14.7588L133.175 14.8805C133.454 14.2522 133.838 13.7813 134.334 13.4664C134.83 13.1513 135.449 12.9854 136.207 12.9854V12.6854ZM133.038 14.6696H132.981V14.9696H133.038V14.6696ZM133.131 14.8196V12.9873H132.831V14.8196H133.131ZM132.981 12.8373H130.313V13.1373H132.981V12.8373ZM130.163 12.9873V23.1646H130.463V12.9873H130.163ZM145.544 9.61519H151.097V9.31519H145.544V9.61519ZM151.097 9.61519C152.463 9.61519 153.606 10.0708 154.407 10.8596C155.208 11.6482 155.677 12.7805 155.677 14.1551H155.977C155.977 12.71 155.482 11.4974 154.618 10.6459C153.753 9.79468 152.531 9.31519 151.097 9.31519V9.61519ZM155.677 14.1551C155.677 15.5232 155.192 16.6551 154.366 17.4454C153.539 18.2362 152.36 18.6949 150.955 18.6949V18.9949C152.426 18.9949 153.683 18.5138 154.573 17.6622C155.464 16.81 155.977 15.5971 155.977 14.1551H155.677ZM150.955 18.6949H148.401V18.9949H150.955V18.6949ZM148.251 18.8449V23.1646H148.551V18.8449H148.251ZM148.401 23.0146H145.544V23.3146H148.401V23.0146ZM145.694 23.1646V9.46519H145.394V23.1646H145.694ZM148.251 11.7342V16.6044H148.551V11.7342H148.251ZM148.401 16.7544H150.331V16.4544H148.401V16.7544ZM150.331 16.7544C151.175 16.7544 151.864 16.5291 152.343 16.0815C152.824 15.6326 153.073 14.9789 153.073 14.1646H152.773C152.773 14.9167 152.544 15.4829 152.138 15.8623C151.731 16.2431 151.124 16.4544 150.331 16.4544V16.7544ZM153.073 14.1646C153.073 13.3552 152.826 12.7039 152.348 12.256C151.871 11.8095 151.184 11.5842 150.34 11.5842V11.8842C151.133 11.8842 151.738 12.0955 152.143 12.475C152.547 12.8531 152.773 13.417 152.773 14.1646H153.073ZM150.34 11.5842H148.401V11.8842H150.34V11.5842ZM157.275 23.3146H160.037V23.0146H157.275V23.3146ZM160.187 23.1646V17.5158H159.887V23.1646H160.187ZM160.187 17.5158C160.187 16.826 160.378 16.2999 160.713 15.9471C161.048 15.5953 161.544 15.3968 162.194 15.3968V15.0968C161.482 15.0968 160.899 15.3161 160.496 15.7404C160.093 16.1637 159.887 16.7721 159.887 17.5158H160.187ZM162.194 15.3968C162.579 15.3968 162.936 15.4618 163.139 15.5466L163.254 15.2698C163.003 15.1648 162.603 15.0968 162.194 15.0968V15.3968ZM163.347 15.4082V12.9684H163.047V15.4082H163.347ZM163.244 12.8261C163.026 12.7529 162.743 12.7139 162.411 12.7139V13.0139C162.723 13.0139 162.97 13.0509 163.149 13.1106L163.244 12.8261ZM162.411 12.7139C161.785 12.7139 161.235 12.8965 160.795 13.2515C160.356 13.6059 160.036 14.1242 159.855 14.7795L160.144 14.8597C160.312 14.2524 160.602 13.7928 160.984 13.485C161.364 13.1778 161.846 13.0139 162.411 13.0139V12.7139ZM159.999 14.6696H159.942V14.9696H159.999V14.6696ZM160.092 14.8196V12.9873H159.792V14.8196H160.092ZM159.942 12.8373H157.275V13.1373H159.942V12.8373ZM157.125 12.9873V23.1646H157.425V12.9873H157.125ZM168.977 23.1949C167.463 23.1949 166.249 22.7125 165.413 21.8408C164.577 20.9684 164.103 19.6894 164.103 18.0665H163.803C163.803 19.7473 164.295 21.1075 165.197 22.0484C166.099 22.99 167.397 23.4949 168.977 23.4949V23.1949ZM164.103 18.0665C164.103 16.4683 164.583 15.1937 165.424 14.3195C166.264 13.446 167.478 12.957 168.977 12.957V12.657C167.411 12.657 166.113 13.1695 165.208 14.1116C164.302 15.0531 163.803 16.4083 163.803 18.0665H164.103ZM168.977 12.957C170.476 12.957 171.69 13.4437 172.53 14.316C173.37 15.189 173.85 16.4635 173.85 18.0665H174.15C174.15 16.4036 173.651 15.0484 172.746 14.108C171.84 13.167 170.543 12.657 168.977 12.657V12.957ZM173.85 18.0665C173.85 19.6943 173.376 20.9732 172.54 21.8443C171.705 22.7147 170.491 23.1949 168.977 23.1949V23.4949C170.556 23.4949 171.854 22.9925 172.757 22.0521C173.659 21.1123 174.15 19.7519 174.15 18.0665H173.85ZM168.977 21.3778C169.715 21.3778 170.314 21.068 170.724 20.4898C171.129 19.9179 171.34 19.0954 171.34 18.0759H171.04C171.04 19.0597 170.836 19.8131 170.479 20.3164C170.127 20.8133 169.62 21.0778 168.977 21.0778V21.3778ZM171.34 18.0759C171.34 17.0657 171.129 16.2435 170.724 15.6695C170.315 15.0893 169.716 14.7741 168.977 14.7741V15.0741C169.619 15.0741 170.126 15.3426 170.479 15.8424C170.836 16.3483 171.04 17.102 171.04 18.0759H171.34ZM168.977 14.7741C168.238 14.7741 167.636 15.0919 167.225 15.6728C166.818 16.2478 166.604 17.07 166.604 18.0759H166.904C166.904 17.1072 167.111 16.3534 167.47 15.8462C167.825 15.3448 168.335 15.0741 168.977 15.0741V14.7741ZM166.604 18.0759C166.604 19.0954 166.815 19.918 167.221 20.49C167.632 21.0683 168.234 21.3778 168.977 21.3778V21.0778C168.329 21.0778 167.819 20.813 167.466 20.3162C167.108 19.813 166.904 19.0597 166.904 18.0759H166.604Z" fill="#002140"/>
</g>
</g>
<defs>
<linearGradient id="paint0_linear_0_19749" x1="12.5443" y1="13.7757" x2="33.7541" y2="20.9347" gradientUnits="userSpaceOnUse">
<stop stop-color="#4285EB"/>
<stop offset="1" stop-color="#2EC7FF"/>
</linearGradient>
<linearGradient id="paint1_linear_0_19749" x1="7.45896" y1="-3.85728" x2="-3.95043" y2="28.7346" gradientUnits="userSpaceOnUse">
<stop stop-color="#29CDFF"/>
<stop offset="0.3786" stop-color="#148EFF"/>
<stop offset="1" stop-color="#0A60FF"/>
</linearGradient>
<linearGradient id="paint2_linear_0_19749" x1="26.5213" y1="0.61642" x2="11.9379" y2="9.8251" gradientUnits="userSpaceOnUse">
<stop stop-color="#FA816E"/>
<stop offset="0.41473" stop-color="#F74A5C"/>
<stop offset="1" stop-color="#F51D2C"/>
</linearGradient>
<linearGradient id="paint3_linear_0_19749" x1="11.6811" y1="8.62004" x2="8.85708" y2="19.9347" gradientUnits="userSpaceOnUse">
<stop stop-color="#FA8E7D"/>
<stop offset="0.51264" stop-color="#F74A5C"/>
<stop offset="1" stop-color="#F51D2C"/>
</linearGradient>
</defs>
</svg>
